<svg width="49" height="45" viewBox="0 0 49 45" fill="none" xmlns="http://www.w3.org/2000/svg">
<path fill-rule="evenodd" clip-rule="evenodd" d="M6.00798e-07 3.75259C6.00798e-07 2.75734 0.427635 1.80286 1.18883 1.09911C1.95002 0.395365 2.98243 5.00272e-06 4.05892 5.00272e-06H44.52C45.0535 -0.00080054 45.5819 0.0956834 46.075 0.283933C46.5681 0.472182 47.0162 0.7485 47.3936 1.09707C47.771 1.44563 48.0704 1.8596 48.2745 2.31528C48.4787 2.77095 48.5836 3.25937 48.5833 3.75259V41.16C48.5839 41.6533 48.4793 42.1419 48.2754 42.5978C48.0716 43.0537 47.7725 43.4679 47.3953 43.8168C47.0181 44.1658 46.5702 44.4425 46.0772 44.6312C45.5842 44.8199 45.0558 44.9169 44.5222 44.9167H4.05892C3.52571 44.9167 2.99772 44.8195 2.50513 44.6308C2.01253 44.4421 1.56498 44.1655 1.18805 43.8168C0.811115 43.4682 0.512183 43.0542 0.308333 42.5987C0.104483 42.1432 -0.000289503 41.655 6.00798e-07 41.162V3.75259ZM19.2302 17.1255H25.8088V20.1798C26.7584 18.424 29.1875 16.8438 32.8379 16.8438C39.8361 16.8438 41.4946 20.3411 41.4946 26.7581V38.6447H34.4125V28.2199C34.4125 24.5653 33.4629 22.5033 31.0514 22.5033C27.7058 22.5033 26.3145 24.7266 26.3145 28.2199V38.6447H19.2302V17.1255ZM7.08434 38.365H14.1687V16.8438H7.08434V38.3629V38.365ZM15.1823 9.8245C15.1957 10.3853 15.0877 10.9429 14.8648 11.4646C14.6419 11.9863 14.3086 12.4616 13.8843 12.8626C13.46 13.2635 12.9534 13.5821 12.3942 13.7996C11.8349 14.0171 11.2343 14.1292 10.6276 14.1292C10.0209 14.1292 9.42029 14.0171 8.86104 13.7996C8.30179 13.5821 7.79517 13.2635 7.37091 12.8626C6.94664 12.4616 6.61328 11.9863 6.39039 11.4646C6.1675 10.9429 6.05956 10.3853 6.07292 9.8245C6.09914 8.72375 6.59052 7.67625 7.44183 6.90632C8.29315 6.1364 9.43671 5.70527 10.6276 5.70527C11.8185 5.70527 12.9621 6.1364 13.8134 6.90632C14.6647 7.67625 15.1561 8.72375 15.1823 9.8245Z" fill="#699BF7"/>
</svg>
