<svg width="82" height="57" viewBox="0 0 82 57" fill="none" xmlns="http://www.w3.org/2000/svg">
<path fill-rule="evenodd" clip-rule="evenodd" d="M1.28747 21.6454C1.57776 21.4097 1.9226 21.2226 2.30226 21.095C2.68192 20.9674 3.08893 20.9017 3.49997 20.9017C3.91102 20.9017 4.31803 20.9674 4.69768 21.095C5.07734 21.2226 5.42219 21.4097 5.71247 21.6454L41 50.2333L76.2875 21.6454C76.8743 21.1701 77.6701 20.9031 78.5 20.9031C79.3298 20.9031 80.1257 21.1701 80.7125 21.6454C81.2993 22.1207 81.6289 22.7653 81.6289 23.4375C81.6289 24.1097 81.2993 24.7543 80.7125 25.2296L43.2125 55.6046C42.9222 55.8404 42.5773 56.0274 42.1977 56.155C41.818 56.2826 41.411 56.3483 41 56.3483C40.5889 56.3483 40.1819 56.2826 39.8023 56.155C39.4226 56.0274 39.0778 55.8404 38.7875 55.6046L1.28747 25.2296C0.996451 24.9945 0.765558 24.7152 0.608018 24.4077C0.450478 24.1001 0.369385 23.7705 0.369385 23.4375C0.369385 23.1046 0.450478 22.7749 0.608018 22.4674C0.765558 22.1598 0.996451 21.8805 1.28747 21.6454Z" fill="#AAA6A6"/>
<path fill-rule="evenodd" clip-rule="evenodd" d="M1.28747 1.39538C1.57776 1.15966 1.9226 0.972634 2.30226 0.845026C2.68192 0.717419 3.08893 0.651733 3.49997 0.651733C3.91102 0.651733 4.31803 0.717419 4.69768 0.845026C5.07734 0.972634 5.42219 1.15966 5.71247 1.39538L41 29.9833L76.2875 1.39538C76.578 1.16004 76.923 0.973352 77.3026 0.845985C77.6822 0.718617 78.0891 0.653061 78.5 0.653061C78.9109 0.653061 79.3177 0.718617 79.6974 0.845985C80.077 0.973352 80.4219 1.16004 80.7125 1.39538C81.003 1.63073 81.2335 1.91012 81.3907 2.21762C81.548 2.52511 81.6289 2.85468 81.6289 3.18751C81.6289 3.52034 81.548 3.84991 81.3907 4.1574C81.2335 4.46489 81.003 4.74429 80.7125 4.97963L43.2125 35.3546C42.9222 35.5904 42.5773 35.7774 42.1977 35.905C41.818 36.0326 41.411 36.0983 41 36.0983C40.5889 36.0983 40.1819 36.0326 39.8023 35.905C39.4226 35.7774 39.0778 35.5904 38.7875 35.3546L1.28747 4.97963C0.996451 4.7445 0.765558 4.46518 0.608018 4.15765C0.450478 3.85013 0.369385 3.52046 0.369385 3.18751C0.369385 2.85456 0.450478 2.52488 0.608018 2.21736C0.765558 1.90984 0.996451 1.63051 1.28747 1.39538Z" fill="#AAA6A6"/>
</svg>
