<svg width="53" height="50" viewBox="0 0 53 50" fill="none" xmlns="http://www.w3.org/2000/svg">
<path fill-rule="evenodd" clip-rule="evenodd" d="M26.5 0C11.8587 0 0 11.4705 0 25.6323C0 36.9747 7.58562 46.5547 18.1194 49.951C19.4444 50.1753 19.9412 49.4063 19.9412 48.7335C19.9412 48.1247 19.9081 46.1062 19.9081 43.9595C13.25 45.145 11.5275 42.3895 10.9975 40.9477C10.6994 40.2107 9.4075 37.9359 8.28125 37.3271C7.35375 36.8465 6.02875 35.661 8.24812 35.629C10.335 35.5969 11.8256 37.4873 12.3225 38.2563C14.7075 42.1332 18.5169 41.0438 20.0406 40.3709C20.2725 38.7048 20.9681 37.5834 21.73 36.9426C15.8337 36.3018 9.6725 34.091 9.6725 24.2866C9.6725 21.4991 10.6994 19.1922 12.3888 17.398C12.1237 16.7571 11.1962 14.1298 12.6537 10.6054C12.6537 10.6054 14.8731 9.93253 19.9412 13.2327C22.0612 12.656 24.3137 12.3676 26.5662 12.3676C28.8187 12.3676 31.0712 12.656 33.1912 13.2327C38.2594 9.90049 40.4787 10.6054 40.4787 10.6054C41.9362 14.1298 41.0088 16.7571 40.7438 17.398C42.4331 19.1922 43.46 21.4671 43.46 24.2866C43.46 34.1231 37.2656 36.3018 31.3694 36.9426C32.33 37.7436 33.1581 39.2816 33.1581 41.6846C33.1581 45.1129 33.125 47.8684 33.125 48.7335C33.125 49.4063 33.6219 50.2074 34.9469 49.951C40.2075 48.2331 44.7788 44.9627 48.0173 40.6003C51.2557 36.2378 52.9984 31.0029 53 25.6323C53 11.4705 41.1413 0 26.5 0Z" fill="#699BF7"/>
</svg>
